<svg xmlns="http://www.w3.org/2000/svg" viewBox="0 0 820 640" width="820" height="640" role="img" aria-label="Фасад здания со световой вывеской">
  <defs>
    <linearGradient id="hsky" x1="0" y1="0" x2="0" y2="1">
      <stop offset="0" stop-color="#15171D"/><stop offset="1" stop-color="#07080B"/>
    </linearGradient>
    <linearGradient id="hwall" x1="0" y1="0" x2="1" y2="1">
      <stop offset="0" stop-color="#1E2128"/><stop offset="1" stop-color="#101216"/>
    </linearGradient>
    <linearGradient id="hwall2" x1="0" y1="0" x2="1" y2="0">
      <stop offset="0" stop-color="#0B0C10"/><stop offset="1" stop-color="#171A20"/>
    </linearGradient>
    <radialGradient id="hglow" cx="0.5" cy="0.5" r="0.5">
      <stop offset="0" stop-color="#E4262C" stop-opacity="0.55"/><stop offset="1" stop-color="#E4262C" stop-opacity="0"/>
    </radialGradient>
    <linearGradient id="hwin" x1="0" y1="0" x2="0" y2="1">
      <stop offset="0" stop-color="#2E333D"/><stop offset="1" stop-color="#14161B"/>
    </linearGradient>
    <linearGradient id="hground" x1="0" y1="0" x2="0" y2="1">
      <stop offset="0" stop-color="#101216"/><stop offset="1" stop-color="#06070A"/>
    </linearGradient>
  </defs>

  <rect width="820" height="640" fill="url(#hsky)"/>
  <g stroke="#1B1E25" stroke-width="1">
    <path d="M0 80h820M0 160h820M0 240h820M0 320h820M0 400h820M0 480h820M0 560h820"/>
    <path d="M60 0v640M160 0v640M260 0v640M360 0v640M460 0v640M560 0v640M660 0v640M760 0v640"/>
  </g>

  <rect x="560" y="120" width="220" height="440" fill="url(#hwall2)"/>
  <g fill="url(#hwin)" opacity="0.7">
    <rect x="592" y="152" width="40" height="52"/><rect x="652" y="152" width="40" height="52"/><rect x="712" y="152" width="40" height="52"/>
    <rect x="592" y="228" width="40" height="52"/><rect x="712" y="228" width="40" height="52"/>
    <rect x="652" y="304" width="40" height="52"/><rect x="592" y="380" width="40" height="52"/>
  </g>

  <rect x="60" y="70" width="480" height="490" fill="url(#hwall)"/>
  <g stroke="#2A2E37" stroke-width="1.5">
    <path d="M60 190h480M60 330h480M60 470h480M220 70v490M380 70v490"/>
  </g>
  <g fill="url(#hwin)">
    <rect x="96" y="216" width="88" height="80"/><rect x="256" y="216" width="88" height="80"/><rect x="416" y="216" width="88" height="80"/>
    <rect x="96" y="356" width="88" height="80"/><rect x="416" y="356" width="88" height="80"/>
  </g>
  <g fill="#E4262C" opacity="0.14"><rect x="256" y="356" width="88" height="80"/></g>

  <ellipse cx="300" cy="130" rx="290" ry="96" fill="url(#hglow)"/>
  <rect x="112" y="86" width="380" height="86" rx="10" fill="#0C0D11" stroke="#E4262C" stroke-width="2.5"/>
  <g fill="#F4F5F7">
    <rect x="140" y="110" width="18" height="40" rx="3"/><rect x="168" y="110" width="18" height="40" rx="3"/>
    <rect x="140" y="124" width="46" height="14"/>
    <rect x="204" y="110" width="18" height="40" rx="3"/><rect x="232" y="110" width="18" height="40" rx="3"/>
    <rect x="204" y="138" width="46" height="12"/>
    <rect x="268" y="110" width="18" height="40" rx="3"/><rect x="296" y="110" width="18" height="40" rx="3"/>
    <rect x="268" y="124" width="46" height="14"/>
    <rect x="332" y="110" width="18" height="40" rx="3"/>
    <rect x="360" y="110" width="18" height="40" rx="3"/><rect x="360" y="124" width="34" height="14"/>
    <rect x="394" y="110" width="18" height="40" rx="3"/>
  </g>
  <path d="M112 172h380" stroke="#E4262C" stroke-width="4"/>

  <g stroke="#3A3F49" stroke-width="3" fill="none">
    <path d="M540 560V300h200v260"/>
    <path d="M540 300h200M540 380h200M540 470h200M620 300v260"/>
  </g>
  <g stroke="#E4262C" stroke-width="4"><path d="M540 300h200"/></g>
  <g fill="#0C0D11" stroke="#E4262C" stroke-width="2">
    <rect x="560" y="316" width="160" height="48" rx="6"/>
  </g>
  <g fill="#F4F5F7"><rect x="578" y="330" width="14" height="20"/><rect x="598" y="330" width="14" height="20"/><rect x="618" y="330" width="14" height="20"/><rect x="638" y="330" width="14" height="20"/><path d="M662 330h14v20z"/></g>

  <rect x="0" y="560" width="820" height="80" fill="url(#hground)"/>
  <g stroke="#E4262C" stroke-width="2" opacity="0.25"><path d="M0 596h820"/></g>
  <g stroke="#2E323B" stroke-width="2"><path d="M0 560h820"/></g>
  <g fill="#0C0D11" stroke="#3A3F49" stroke-width="2">
    <rect x="150" y="470" width="180" height="90" rx="4"/>
  </g>
  <g fill="#E4262C" opacity="0.8"><rect x="150" y="470" width="180" height="8"/></g>
  <g fill="#1B1E25"><rect x="170" y="492" width="60" height="46"/><rect x="250" y="492" width="60" height="46"/></g>
</svg>
